PathFileType	4	(X/Y/Z)	C:\Users\Basilio\Documents\Thesis Gigler\squatting_fais\c3dfiles\077\SLS_front_pre5\markers_experimental.trc
DataRate	CameraRate	NumFrames	NumMarkers	Units	OrigDataRate	OrigDataStartFrame	OrigNumFrames
200.000000	200.000000	4	60	mm	200.000000	393	1572
Frame#	Time	FHD			LBHD			RBHD			C7			T10			CLAV			LSHO			LUUPA			LMUPA			LDUPA			LLEP			LMEP			LRAD			LUL			LRFIN			RSHO			RUPA1			RMUPA			RDUPA			RLEP			RMEP			RRAD			RUL			RUFIN			LASI			RASI			USACR			LSACR			RSACR			LTHI1			LTHI2			LTHI3			LTHI4			LLFC			LMFC			LTIB1			LTIB2			LTIB3			LTIB4			LLMAL			LHEE			LMT1			LMT2			LMT5			RTHI			RTHI2			RTHI3			RTHI4			RLFC			RMFC			RTIB1			RTIB2			RTIB3			RTIB4			RLMAL			RMMAL			RHEE			RMT1			RMT2			RMT5			
		X1	Y1	Z1	X2	Y2	Z2	X3	Y3	Z3	X4	Y4	Z4	X5	Y5	Z5	X6	Y6	Z6	X7	Y7	Z7	X8	Y8	Z8	X9	Y9	Z9	X10	Y10	Z10	X11	Y11	Z11	X12	Y12	Z12	X13	Y13	Z13	X14	Y14	Z14	X15	Y15	Z15	X16	Y16	Z16	X17	Y17	Z17	X18	Y18	Z18	X19	Y19	Z19	X20	Y20	Z20	X21	Y21	Z21	X22	Y22	Z22	X23	Y23	Z23	X24	Y24	Z24	X25	Y25	Z25	X26	Y26	Z26	X27	Y27	Z27	X28	Y28	Z28	X29	Y29	Z29	X30	Y30	Z30	X31	Y31	Z31	X32	Y32	Z32	X33	Y33	Z33	X34	Y34	Z34	X35	Y35	Z35	X36	Y36	Z36	X37	Y37	Z37	X38	Y38	Z38	X39	Y39	Z39	X40	Y40	Z40	X41	Y41	Z41	X42	Y42	Z42	X43	Y43	Z43	X44	Y44	Z44	X45	Y45	Z45	X46	Y46	Z46	X47	Y47	Z47	X48	Y48	Z48	X49	Y49	Z49	X50	Y50	Z50	X51	Y51	Z51	X52	Y52	Z52	X53	Y53	Z53	X54	Y54	Z54	X55	Y55	Z55	X56	Y56	Z56	X57	Y57	Z57	X58	Y58	Z58	X59	Y59	Z59	X60	Y60	Z60	

394	1.965	-355.1857299804688	1866.671752929688	-1010.832458496094	-494.0138549804689	1758.140380859375	-1080.368041992188	-497.9588012695314	1749.932006835938	-934.2061767578127	-531.3510131835939	1598.045776367188	-1025.815795898438	-483.1627502441407	1266.13037109375	-1019.518005371094	-364.3740844726563	1575.387084960938	-1022.121154785156	-397.4244689941407	1615.08203125	-1194.097900390625	-223.1407470703126	1575.089599609375	-1300.412719726563	-195.3380279541016	1608.95361328125	-1276.4169921875	-154.3065795898438	1576.47509765625	-1307.776489257813	-90.19210052490236	1589.7119140625	-1304.209350585938	-79.13121032714845	1524.099731445313	-1272.789794921875	202.3932800292969	1642.00048828125	-1191.850708007813	204.5395812988282	1649.049560546875	-1271.797241210938	297.8317565917969	1674.869873046875	-1200.2646484375	-390.3534545898439	1600.009033203125	-855.3143310546877	-231.6113586425782	1574.893432617188	-743.0061035156251	-207.3982391357422	1606.6162109375	-773.283142089844	-162.3748321533203	1583.881225585938	-738.7448120117189	-97.01402282714847	1598.144897460938	-745.7051391601564	-84.14260101318361	1526.249877929688	-775.0601196289065	182.1309051513672	1648.116455078125	-846.2854003906252	193.9269256591797	1665.489990234375	-771.587341308594	279.5015258789063	1676.8291015625	-852.415710449219	-274.2254943847657	1080	-1151.249267578125	-282.3686523437501	1118.251220703125	-865.6196899414065	-482.430145263672	1168.774169921875	-1015.20263671875	-483.4748535156251	1137.138427734375	-1043.06689453125	-487.865203857422	1136.89599609375	-987.1761474609377	-344.7117614746094	862.4603271484377	-1186.315185546875	-317.5985717773438	783.1521606445315	-1178.818481445313	-270.2703857421876	784.7379150390627	-1177.723022460938	-347.7160644531251	732.6986083984376	-1162.014526367188	-323.7811584472657	584.9711303710939	-1133.193115234375	-311.1673889160157	568.1322631835939	-999.7246093750002	-302.4932861328126	362.4696350097657	-1053.356567382813	-337.2659912109376	316.0501098632813	-1121.653198242188	-305.7049255371094	313.0951538085938	-1086.459106445313	-318.8403625488282	236.1723022460938	-1051.11083984375	-388.3847656250001	121.1198883056641	-1087.712036132813	-444.9503784179689	95.42435455322267	-1034.608764648438	-237.6726837158204	55.22107696533205	-1013.359436035156	-232.1124114990235	55.88830947875978	-1055.846557617188	-358.4252319335938	135.3535308837891	-1004.784851074219	-200.0290527343751	816.099304199219	-787.2143554687502	-137.4077301025391	790.5972900390627	-786.8408203125002	-109.5363693237305	809.5610961914065	-792.6999511718752	-119.6343688964844	710.1282348632814	-796.758483886719	-99.3238220214844	651.0890502929689	-798.0063476562502	-64.14815521240236	644.2803955078126	-922.852478027344	-48.48344802856447	516.4491577148439	-818.4716796875002	-115.3364486694336	438.1319580078126	-791.0151977539065	-72.2219696044922	433.1035156250001	-809.6579589843752	-69.43086242675783	391.3420715332032	-852.2398071289065	-144.3028869628907	213.4194030761719	-817.2116699218752	-112.7122039794922	221.7206268310547	-904.3392333984377	-205.8201751708985	179.8706970214844	-880.2950439453127	14.11491870880127	147.8426055908203	-854.6340332031252	8.987227439880373	151.6790924072266	-815.9694824218752	-14.94235420227051	132.8433074951172	-770.1443481445315	
395	1.97	-355.7243041992188	1867.176391601563	-1011.905334472656	-494.1439208984376	1758.315063476563	-1081.241455078125	-498.0257568359376	1750.124389648438	-935.0437622070315	-531.3487548828126	1598.36474609375	-1026.74755859375	-483.4342651367189	1266.255004882813	-1020.28466796875	-364.5158386230469	1575.54248046875	-1022.990661621094	-397.5108337402345	1615.233032226563	-1195.07763671875	-222.9750213623047	1574.975708007813	-1301.329711914063	-195.2092590332032	1608.814331054688	-1277.294799804688	-154.1634368896485	1576.2412109375	-1308.332641601563	-90.0291213989258	1589.616455078125	-1304.77001953125	-79.09351348876955	1523.926513671875	-1273.461547851563	202.4480895996094	1641.745849609375	-1192.385620117188	204.5252685546876	1648.684936523438	-1272.406372070313	297.8681030273438	1674.14111328125	-1200.956909179688	-390.5985412597657	1600.232299804688	-856.1372070312502	-231.9521942138672	1574.96875	-743.8322143554689	-207.5786895751954	1606.711303710938	-774.0251464843752	-162.6698455810547	1583.939575195313	-739.3966064453126	-97.35507965087893	1597.948364257813	-746.4011840820314	-84.41783142089845	1526.294921875	-775.4500122070315	182.1260070800782	1647.761840820313	-847.5457153320315	193.5369873046876	1665.375122070313	-772.2803344726565	279.3416748046876	1676.218383789063	-852.8850097656252	-274.0979309082032	1080.7060546875	-1151.900390625	-282.9159851074219	1119.130126953125	-866.4231567382815	-482.7223510742189	1168.826538085938	-1016.058044433594	-483.8245239257814	1137.014526367188	-1043.842895507813	-488.5017395019532	1136.917114257813	-987.8754882812502	-345.0245056152344	862.3289794921877	-1186.72265625	-317.9941711425782	783.2224731445315	-1179.36083984375	-270.5300598144532	784.7558593750002	-1178.21240234375	-347.9277038574219	732.6131591796876	-1162.353271484375	-323.9131469726563	585.0101318359376	-1133.489501953125	-311.1212463378907	568.3206787109376	-1000.006896972656	-302.9569702148438	361.7823791503907	-1052.962646484375	-337.0599670410157	316.1441955566407	-1121.841552734375	-305.5606994628907	313.7924194335938	-1086.444946289063	-318.6221008300782	236.0659484863282	-1051.388305664063	-388.5736389160157	121.2853012084961	-1087.731079101563	-444.8931274414064	95.42288970947267	-1034.596313476563	-237.6588134765626	55.21005249023439	-1013.403930664063	-232.1762390136719	56.0498390197754	-1055.964965820313	-358.3074035644532	135.4515533447266	-1004.804138183594	-198.3556365966797	817.7500000000002	-787.7618408203127	-135.4558563232422	792.6853637695315	-787.6023559570315	-107.9377899169922	811.6687011718752	-793.6912841796877	-117.1357116699219	712.4581298828126	-797.3604125976565	-96.33952331542972	653.2042846679689	-798.890075683594	-61.03537368774415	647.1141967773439	-923.779235839844	-42.98114776611329	519.5255126953126	-819.3026123046877	-108.3642578125	439.7123413085939	-791.7993774414065	-65.0946731567383	435.7337036132814	-810.404724121094	-61.51371383666994	393.897186279297	-852.942810058594	-132.8982849121094	214.1353759765626	-817.8686523437502	-101.3719787597657	223.3286743164063	-905.1648559570315	-193.5894165039063	179.2964477539063	-880.7122802734377	27.19251060485841	152.8805541992188	-855.9420166015627	22.07647132873536	156.581298828125	-817.3078613281252	-0.8674472570419314	137.2064971923828	-771.5997314453127	
396	1.975	-355.8050842285157	1867.38037109375	-1012.797607421875	-494.3577575683595	1758.73095703125	-1082.352416992188	-498.1858825683595	1750.150634765625	-936.1308593750002	-531.5767211914064	1598.309204101563	-1027.775512695313	-483.6638183593751	1266.273803710938	-1021.259033203125	-364.7194213867188	1575.53662109375	-1023.884155273438	-397.5111694335939	1615.230834960938	-1195.939453125	-222.7678833007813	1574.820678710938	-1302.0830078125	-194.8809509277344	1608.78857421875	-1278.05126953125	-153.8069915771485	1575.976806640625	-1309.216186523438	-90.0176239013672	1589.484497070313	-1305.460083007813	-79.11595153808595	1523.819213867188	-1274.152587890625	202.5179443359376	1641.464111328125	-1193.105224609375	205.032699584961	1648.318481445313	-1272.829467773438	298.2102355957032	1673.9921875	-1201.234130859375	-390.8915405273439	1600.299438476563	-857.0933227539065	-232.3056030273438	1575.032470703125	-744.6335449218751	-207.8329772949219	1606.806640625	-774.7868652343752	-163.0845642089844	1583.879760742188	-740.1405639648439	-97.75498962402347	1597.777221679688	-747.1479492187501	-84.72193145751955	1526.14111328125	-775.9622802734377	182.1438293457032	1647.406494140625	-848.243591308594	193.2099609375001	1664.860473632813	-772.9328613281252	279.1585083007813	1675.33203125	-853.316345214844	-274.0909118652344	1081.272583007813	-1152.439208984375	-283.2552490234376	1119.831420898438	-867.1165161132815	-482.9575195312501	1168.734741210938	-1016.746887207031	-484.0320129394532	1137.032592773438	-1044.645751953125	-488.7489013671876	1136.820922851563	-988.7730102539065	-345.2585144042969	862.2955322265627	-1187.101806640625	-318.9367980957032	783.4558715820315	-1180.058837890625	-270.7972106933594	784.6621093750002	-1178.603637695313	-348.2296142578126	732.6633911132814	-1162.695922851563	-323.9385681152344	584.9350585937501	-1133.738891601563	-311.0996704101563	568.3821411132814	-1000.253173828125	-302.9197998046876	361.8193664550782	-1053.057006835938	-337.2692260742188	316.2073974609376	-1121.896606445313	-305.5915832519532	313.7368469238282	-1086.651733398438	-318.8601684570313	235.4839630126954	-1050.623901367188	-388.6080322265626	121.2651977539063	-1087.75146484375	-444.8668823242189	95.50769042968751	-1034.608276367188	-237.6871490478516	55.19244384765626	-1013.421081542969	-232.1655883789063	56.1001434326172	-1056.03125	-358.2136230468751	135.5317687988282	-1004.853332519531	-196.3765106201172	819.5976562500002	-788.242370605469	-133.6155853271485	794.4892578125002	-788.4597167968752	-105.9658737182617	814.1368408203127	-794.5969238281252	-114.537841796875	714.6983642578126	-798.004333496094	-93.52085876464845	655.2522583007814	-799.6370239257815	-57.95296859741212	649.2946777343751	-924.435485839844	-37.44780349731446	522.7446899414064	-819.8004150390627	-101.5952606201172	441.3587951660157	-792.3714599609377	-58.14438247680665	438.3840332031251	-811.172058105469	-53.39391708374025	396.1425170898439	-853.3911743164065	-120.9651870727539	215.3078002929688	-818.4730224609377	-90.34879302978517	225.3828887939454	-905.907897949219	-181.2145233154297	178.4602813720703	-881.1296997070315	40.31859970092774	158.1330261230469	-857.2025146484377	35.29786682128907	161.7149810791016	-818.4592895507815	12.76018905639649	141.7532653808594	-772.7407836914065	
397	1.98	-356.0135498046876	1867.066650390625	-1013.846496582031	-494.6713256835939	1758.763793945313	-1083.241088867188	-498.3494262695314	1750.224853515625	-937.060485839844	-531.7236328125001	1598.494262695313	-1028.847900390625	-484.0369567871095	1266.379272460938	-1022.085876464844	-364.8348999023438	1575.583740234375	-1024.689819335938	-397.1985473632814	1615.309204101563	-1196.806640625	-222.5203857421876	1574.823364257813	-1303.06103515625	-195.6652526855469	1609.10107421875	-1279.435180664063	-153.7349243164063	1575.9921875	-1310.017211914063	-89.64992523193361	1589.202514648438	-1306.135620117188	-79.09595489501955	1523.772827148438	-1274.891357421875	202.4939117431641	1641.032958984375	-1193.727661132813	205.1047973632813	1648.093994140625	-1273.35107421875	298.9396972656251	1673.040893554688	-1202.233032226563	-391.2489318847657	1600.4365234375	-858.033630371094	-232.639633178711	1575.028686523438	-745.4329833984376	-208.2078857421876	1606.718627929688	-775.6294555664065	-163.4115295410157	1583.894775390625	-740.8750000000001	-98.05194091796878	1597.709228515625	-747.7786865234376	-85.16767883300783	1525.96044921875	-776.5928344726565	181.8506317138672	1646.787353515625	-848.5589599609377	192.9653320312501	1664.643310546875	-773.453308105469	279.0999755859376	1674.851928710938	-853.970642089844	-274.3265380859376	1081.936645507813	-1153.05810546875	-283.7068786621094	1120.479370117188	-867.8382568359377	-483.1146850585939	1168.615356445313	-1017.539184570313	-484.0645751953126	1136.77734375	-1045.365844726563	-488.8250732421876	1136.802734375	-989.5095214843752	-345.5466918945313	862.247497558594	-1187.464599609375	-319.1918029785157	783.318054199219	-1180.4130859375	-270.2652893066407	784.4591064453127	-1178.682373046875	-348.5516662597657	732.6465454101564	-1162.986450195313	-324.1181335449219	584.9718627929689	-1133.913818359375	-311.0470886230469	568.5360717773439	-1000.46923828125	-302.9266662597657	361.8979797363282	-1053.133422851563	-337.4683227539063	316.2287292480469	-1121.98583984375	-305.6499938964844	313.7456054687501	-1086.849731445313	-318.8788146972657	235.5288085937501	-1050.698608398438	-388.4909057617189	121.2845916748047	-1087.770141601563	-444.9097595214845	95.55374145507814	-1034.585571289063	-237.6084747314454	55.21599197387697	-1013.450866699219	-231.4806518554688	57.6824188232422	-1056.350708007813	-358.3030090332032	135.7574920654297	-1004.940124511719	-194.6941680908204	821.0832519531252	-788.8461914062502	-131.5938873291016	796.7672119140627	-789.022399902344	-104.2840576171875	816.226257324219	-795.6187133789065	-112.336296081543	716.3143310546876	-799.2153930664065	-90.64189910888673	657.3446655273439	-800.3927001953127	-55.47415161132814	651.8861694335939	-925.2952880859377	-32.12258911132813	525.8918457031251	-820.448669433594	-94.60608673095705	443.2344665527345	-793.0736083984377	-51.55916595458986	440.9765014648439	-811.8875122070315	-45.93219375610352	399.352508544922	-854.2632446289065	-109.2100448608399	216.8275604248047	-819.2593994140627	-78.60102844238283	227.1161193847657	-906.4065551757815	-168.7588043212891	178.3440551757813	-881.6054687500002	53.30839920043947	163.5880279541016	-858.265075683594	48.26863098144533	167.1622314453125	-819.4963989257815	26.53196144104005	146.3361968994141	-773.6625976562502	
